<svg width="22" height="19" viewBox="0 0 22 19" fill="none" xmlns="http://www.w3.org/2000/svg">
<path fill-rule="evenodd" clip-rule="evenodd" d="M21 9.57139C21 14.3053 17.1624 18.1428 12.4286 18.1428H7.42857C6.6396 18.1428 6 17.5032 6 16.7143V15.2857C6 14.4967 6.6396 13.8571 7.42857 13.8571H12.4286C14.7955 13.8571 16.7143 11.9383 16.7143 9.57139C16.7143 7.20446 14.7955 5.28568 12.4286 5.28568H7.42857C6.6396 5.28568 6 4.64609 6 3.85711V2.42854C6 1.63954 6.6396 0.999966 7.42857 0.999966H12.4286C17.1624 0.999966 21 4.83752 21 9.57139Z" stroke="white" stroke-width="1.5" stroke-linecap="round" stroke-linejoin="round"/>
<path d="M9.57143 5.28568V0.999966M9.57143 18.1428V13.8571M1 9.57139L3.85714 11V8.14282L6.71429 9.57139" stroke="white" stroke-width="1.5" stroke-linecap="round" stroke-linejoin="round"/>
</svg>
