<svg width="22" height="22" viewBox="0 0 22 22" fill="none" xmlns="http://www.w3.org/2000/svg">
<path fill-rule="evenodd" clip-rule="evenodd" d="M10.925 4.28281C10.925 6.09586 9.45523 7.56562 7.64218 7.56562C5.82914 7.56562 4.35938 6.09586 4.35938 4.28281C4.35938 2.46976 5.82914 1 7.64218 1C9.45523 1 10.925 2.46976 10.925 4.28281Z" stroke="white" stroke-width="1.5" stroke-linecap="round" stroke-linejoin="round"/>
<path fill-rule="evenodd" clip-rule="evenodd" d="M14.1326 16.4028C14.1326 18.9356 11.1932 20.9999 7.56562 20.9999C3.93807 20.9999 1 18.9413 1 16.4028C1 13.8643 3.93947 11.8071 7.56703 11.8071C11.1946 11.8071 14.1326 13.8643 14.1326 16.4028Z" stroke="white" stroke-width="1.5" stroke-linecap="round" stroke-linejoin="round"/>
<path fill-rule="evenodd" clip-rule="evenodd" d="M18.0999 7.43091C18.0999 8.51889 17.2179 9.40087 16.1299 9.40087C15.0419 9.40087 14.1599 8.51889 14.1599 7.43091C14.1599 6.34292 15.0419 5.46094 16.1299 5.46094C16.6524 5.46094 17.1534 5.66849 17.5228 6.03793C17.8923 6.40737 18.0999 6.90844 18.0999 7.43091Z" stroke="white" stroke-width="1.5" stroke-linecap="round" stroke-linejoin="round"/>
<path d="M17.0601 19.6872C19.0494 19.8506 20.8024 18.3891 21 16.403C20.8017 14.4173 19.0489 12.9568 17.0601 13.1201" stroke="white" stroke-width="1.5" stroke-linecap="round" stroke-linejoin="round"/>
</svg>
