<svg width="22" height="22" viewBox="0 0 22 22" fill="none" xmlns="http://www.w3.org/2000/svg">
<path fill-rule="evenodd" clip-rule="evenodd" d="M12.6245 20.4145L9.79615 11.7818C9.66898 11.2258 9.83661 10.6435 10.2399 10.2402C10.6432 9.83685 11.2256 9.66922 11.7816 9.7964L20.4143 12.6247C20.7239 12.6713 20.963 12.9211 20.996 13.2324C21.0291 13.5437 20.8479 13.8382 20.555 13.9488L16.4969 15.795C16.1786 15.9347 15.9245 16.1888 15.7849 16.507L13.9415 20.5651C13.8309 20.8579 13.5365 21.0393 13.2251 21.0062C12.9138 20.973 12.664 20.7339 12.6174 20.4244L12.6245 20.4145Z" stroke="white" stroke-width="1.5" stroke-linecap="round" stroke-linejoin="round"/>
<path d="M3.18385 9.73399H1M9.7354 1V3.18385M15.9112 3.55814L14.3634 5.10598M5.10175 14.3676L3.55392 15.9155M3.55392 3.56236L5.10175 5.1102" stroke="white" stroke-width="1.5" stroke-linecap="round" stroke-linejoin="round"/>
</svg>
