<svg width="20" height="22" viewBox="0 0 20 22" fill="none" xmlns="http://www.w3.org/2000/svg">
<path d="M18.4225 10.9961H16.0591C14.9887 10.9961 14.1208 11.8639 14.1208 12.9344C14.1208 14.0048 14.9887 14.8726 16.0591 14.8726H18.4925C18.2417 18.3085 15.3936 20.9752 11.9488 21H7.57207C3.91773 20.9711 0.978592 17.9855 1.00702 14.3312V12.1078C1.00625 11.3126 1.14595 10.5235 1.41968 9.77691M18.4225 10.9961C18.4833 11.3636 18.5138 11.7354 18.5138 12.1078V14.3312C18.5138 14.5112 18.5068 14.6901 18.4925 14.8676M18.4225 10.9961C18.0112 8.46627 16.1809 6.39889 13.7194 5.68408M1.41968 9.77691C2.35562 7.18141 4.813 5.44676 7.57207 5.43398H11.9488C12.5481 5.43493 13.1445 5.5191 13.7207 5.68408L12.6953 3.82836C12.0168 2.54085 10.8387 1.58909 9.43733 1.19647C8.03596 0.803849 6.5348 1.00494 5.28618 1.75255L3.72057 2.69792C1.34124 4.1896 0.372074 7.17138 1.41968 9.77691Z" stroke="white" stroke-width="1.5" stroke-linecap="round" stroke-linejoin="round"/>
</svg>
